HIERARCHY
ROOT Hips
{
  OFFSET 5.84602e-005 68.8428 3.50346
  CHANNELS 6 Xposition Yposition Zposition Zrotation Xrotation Yrotation
  JOINT Spine
  {
    OFFSET 0 8.597 -4.6522
    CHANNELS 3 Zrotation Xrotation Yrotation
    JOINT Spine1
    {
      OFFSET 0 7.8454 0.4098
      CHANNELS 3 Zrotation Xrotation Yrotation
      JOINT Spine2
      {
        OFFSET 0 9.7078 -2.1609
        CHANNELS 3 Zrotation Xrotation Yrotation
        JOINT Neck
        {
          OFFSET 0 21.8761 -0.4549
          CHANNELS 3 Zrotation Xrotation Yrotation
          JOINT Head
          {
            OFFSET 0 12.3537 3.3602
            CHANNELS 3 Zrotation Xrotation Yrotation
            End Site
            {
              OFFSET 0.0001 18.9506 0.5657
            }
          }
        }
        JOINT LeftShoulder
        {
          OFFSET 2.2086 21.1115 7.2329
          CHANNELS 3 Zrotation Xrotation Yrotation
          JOINT LeftArm
          {
            OFFSET 13.1193 3.0282 -4.8998
            CHANNELS 3 Zrotation Xrotation Yrotation
            JOINT LeftForeArm
            {
              OFFSET 27.4081 -0.0973053 -0.2375
              CHANNELS 3 Zrotation Xrotation Yrotation
              JOINT LeftHand
              {
                OFFSET 22.8641 0.0662994 -0.1369
                CHANNELS 3 Zrotation Xrotation Yrotation
                JOINT LeftHandIndex1
                {
                  OFFSET 8.8614 0.775009 2.4612
                  CHANNELS 3 Zrotation Xrotation Yrotation
                  JOINT LeftHandIndex2
                  {
                    OFFSET 3.3146 -0.808304 0.5841
                    CHANNELS 3 Zrotation Xrotation Yrotation
                    JOINT LeftHandIndex3
                    {
                      OFFSET 2.2628 -0.552002 0.3989
                      CHANNELS 3 Zrotation Xrotation Yrotation
                      End Site
                      {
                        OFFSET 1.6102 -0.4807 0.2612
                      }
                    }
                  }
                }
                JOINT LeftHandMiddle1
                {
                  OFFSET 8.9937 0.895004 0.2143
                  CHANNELS 3 Zrotation Xrotation Yrotation
                  JOINT LeftHandMiddle2
                  {
                    OFFSET 4.0984 0.0113983 -0.0242
                    CHANNELS 3 Zrotation Xrotation Yrotation
                    JOINT LeftHandMiddle3
                    {
                      OFFSET 2.2716 0.00689697 -0.0138001
                      CHANNELS 3 Zrotation Xrotation Yrotation
                      End Site
                      {
                        OFFSET 2.0404 -0.1441 0.0027
                      }
                    }
                  }
                }
                JOINT LeftHandRing1
                {
                  OFFSET 8.5234 0.597198 -2.0164
                  CHANNELS 3 Zrotation Xrotation Yrotation
                  JOINT LeftHandRing2
                  {
                    OFFSET 3.7188 -0.188293 -0.2328
                    CHANNELS 3 Zrotation Xrotation Yrotation
                    JOINT LeftHandRing3
                    {
                      OFFSET 2.1191 -0.106598 -0.1332
                      CHANNELS 3 Zrotation Xrotation Yrotation
                      End Site
                      {
                        OFFSET 1.8737 -0.2304 -0.0886
                      }
                    }
                  }
                }
                JOINT LeftHandPinky1
                {
                  OFFSET 7.9094 -0.601089 -3.4825
                  CHANNELS 3 Zrotation Xrotation Yrotation
                  JOINT LeftHandPinky2
                  {
                    OFFSET 2.2874 -0.477005 -0.6314
                    CHANNELS 3 Zrotation Xrotation Yrotation
                    JOINT LeftHandPinky3
                    {
                      OFFSET 1.6774 -0.349396 -0.4633
                      CHANNELS 3 Zrotation Xrotation Yrotation
                      End Site
                      {
                        OFFSET 1.4888 -0.4091 -0.3416
                      }
                    }
                  }
                }
                JOINT LeftHandThumb1
                {
                  OFFSET 1.833 -1.3875 1.3896
                  CHANNELS 3 Zrotation Xrotation Yrotation
                  JOINT LeftHandThumb2
                  {
                    OFFSET 3.4129 -1.121 2.5732
                    CHANNELS 3 Zrotation Xrotation Yrotation
                    JOINT LeftHandThumb3
                    {
                      OFFSET 2.2474 -0.804199 1.6192
                      CHANNELS 3 Zrotation Xrotation Yrotation
                      End Site
                      {
                        OFFSET 1.6527 -0.5689 1.1317
                      }
                    }
                  }
                }
              }
            }
          }
        }
        JOINT RightShoulder
        {
          OFFSET -2.2086 21.1115 7.2329
          CHANNELS 3 Zrotation Xrotation Yrotation
          JOINT RightArm
          {
            OFFSET -13.1216 3.0287 -4.9007
            CHANNELS 3 Zrotation Xrotation Yrotation
            JOINT RightForeArm
            {
              OFFSET -27.4081 -0.0973053 -0.2375
              CHANNELS 3 Zrotation Xrotation Yrotation
              JOINT RightHand
              {
                OFFSET -22.8641 0.0664063 -0.1369
                CHANNELS 3 Zrotation Xrotation Yrotation
                JOINT RightHandIndex1
                {
                  OFFSET -8.8614 0.774994 2.4612
                  CHANNELS 3 Zrotation Xrotation Yrotation
                  JOINT RightHandIndex2
                  {
                    OFFSET -3.3146 -0.808304 0.5841
                    CHANNELS 3 Zrotation Xrotation Yrotation
                    JOINT RightHandIndex3
                    {
                      OFFSET -2.2628 -0.552002 0.3989
                      CHANNELS 3 Zrotation Xrotation Yrotation
                      End Site
                      {
                        OFFSET -1.6102 -0.4807 0.2612
                      }
                    }
                  }
                }
                JOINT RightHandMiddle1
                {
                  OFFSET -8.9937 0.894989 0.2143
                  CHANNELS 3 Zrotation Xrotation Yrotation
                  JOINT RightHandMiddle2
                  {
                    OFFSET -4.0984 0.0113983 -0.0242
                    CHANNELS 3 Zrotation Xrotation Yrotation
                    JOINT RightHandMiddle3
                    {
                      OFFSET -2.2716 0.00691223 -0.0138001
                      CHANNELS 3 Zrotation Xrotation Yrotation
                      End Site
                      {
                        OFFSET -2.0404 -0.1441 0.0027
                      }
                    }
                  }
                }
                JOINT RightHandRing1
                {
                  OFFSET -8.5234 0.597198 -2.0164
                  CHANNELS 3 Zrotation Xrotation Yrotation
                  JOINT RightHandRing2
                  {
                    OFFSET -3.7188 -0.188309 -0.2328
                    CHANNELS 3 Zrotation Xrotation Yrotation
                    JOINT RightHandRing3
                    {
                      OFFSET -2.1191 -0.106598 -0.1332
                      CHANNELS 3 Zrotation Xrotation Yrotation
                      End Site
                      {
                        OFFSET -1.8737 -0.2304 -0.0886
                      }
                    }
                  }
                }
                JOINT RightHandPinky1
                {
                  OFFSET -7.9094 -0.601105 -3.4825
                  CHANNELS 3 Zrotation Xrotation Yrotation
                  JOINT RightHandPinky2
                  {
                    OFFSET -2.2874 -0.477005 -0.6314
                    CHANNELS 3 Zrotation Xrotation Yrotation
                    JOINT RightHandPinky3
                    {
                      OFFSET -1.6774 -0.349396 -0.4633
                      CHANNELS 3 Zrotation Xrotation Yrotation
                      End Site
                      {
                        OFFSET -1.4888 -0.4091 -0.3416
                      }
                    }
                  }
                }
                JOINT RightHandThumb1
                {
                  OFFSET -1.833 -1.38751 1.3896
                  CHANNELS 3 Zrotation Xrotation Yrotation
                  JOINT RightHandThumb2
                  {
                    OFFSET -3.41299 -1.12099 2.5732
                    CHANNELS 3 Zrotation Xrotation Yrotation
                    JOINT RightHandThumb3
                    {
                      OFFSET -2.24741 -0.804108 1.6192
                      CHANNELS 3 Zrotation Xrotation Yrotation
                      End Site
                      {
                        OFFSET -1.6527 -0.5689 1.1317
                      }
                    }
                  }
                }
              }
            }
          }
        }
      }
    }
  }
  JOINT RightUpLeg
  {
    OFFSET -9.1966 3.8861 -0.7581
    CHANNELS 3 Zrotation Xrotation Yrotation
    JOINT RightLeg
    {
      OFFSET -0.7359 -41.0265 0
      CHANNELS 3 Zrotation Xrotation Yrotation
      JOINT RightFoot
      {
        OFFSET 0 -40.2855 0
        CHANNELS 3 Zrotation Xrotation Yrotation
        JOINT RightToeBase
        {
          OFFSET 0 -5.6122 11.7359
          CHANNELS 3 Zrotation Xrotation Yrotation
          End Site
          {
            OFFSET 0 0 7.8731
          }
        }
      }
    }
  }
  JOINT LeftUpLeg
  {
    OFFSET 9.1965 3.8864 -0.7581
    CHANNELS 3 Zrotation Xrotation Yrotation
    JOINT LeftLeg
    {
      OFFSET 0.7359 -41.0268 0
      CHANNELS 3 Zrotation Xrotation Yrotation
      JOINT LeftFoot
      {
        OFFSET 0 -40.2855 0
        CHANNELS 3 Zrotation Xrotation Yrotation
        JOINT LeftToeBase
        {
          OFFSET 0 -5.6122 11.7359
          CHANNELS 3 Zrotation Xrotation Yrotation
          End Site
          {
            OFFSET 0 0 7.8731
          }
        }
      }
    }
  }
}
MOTION
Frames:	4
Frame Time:	0.0333333
0.996771 17.4198 0.422139 -7.96554e-015 7.70111 -180 -0.574357 14.2619 -0.0407771 -1.19649 28.5236 0.0752872 -1.19649 28.5236 0.0752872 -3.42491e-005 -0.146183 1.05888e-005 20.315 -28.0597 12.7876 -10.8565 -10.5523 -16.3561 -24.0923 22.8136 -74.0735 11.4855 -13.155 0.117741 40.9616 8.64068 -10.325 2.11614e-006 5.99601e-008 3.87272e-006 4.79833e-006 -5.17977e-007 9.03326e-006 2.35382e-006 -2.65903e-007 3.73304e-006 2.11614e-006 5.99601e-008 3.87272e-006 -0.0146005 -8.66424e-005 5.94403e-007 2.35449e-006 -2.66375e-007 3.733e-006 2.11614e-006 5.99601e-008 3.87272e-006 -0.0187446 -0.00117166 6.24623e-005 2.35471e-006 -2.66462e-007 3.73297e-006 2.11614e-006 5.99601e-008 3.87272e-006 -0.0122503 -0.00324456 0.000673886 2.35448e-006 -2.66169e-007 3.73291e-006 2.11614e-006 5.99601e-008 3.87272e-006 4.79833e-006 -5.17977e-007 9.03326e-006 2.35382e-006 -2.65903e-007 3.73304e-006 10.118 -10.5948 15.1556 24.1976 23.3061 75.1594 -11.3181 -13.0943 -0.118034 -35.3603 8.10818 9.49017 -6.36111e-015 -1.59028e-015 -0 5.44767e-006 1.94916e-006 -1.49788e-006 7.06225e-031 1.27222e-014 -3.18055e-015 -6.36111e-015 -1.59028e-015 -0 0.0149973 -9.33079e-005 -3.75026e-006 -2.89414e-006 1.3353e-006 -1.47865e-006 -6.36111e-015 -1.59028e-015 -0 0.018985 -0.0011866 -5.08494e-005 -3.18055e-015 -7.95139e-015 -0 -6.36111e-015 -1.59028e-015 -0 0.0122739 -0.00324317 -0.000666611 -6.36111e-015 -9.54166e-015 -3.18055e-015 -6.36111e-015 -1.59028e-015 -0 5.44767e-006 1.94916e-006 -1.49788e-006 7.06225e-031 1.27222e-014 -3.18055e-015 -96.3311 -47.8315 -110.99 -167.084 67.9314 166.04 -2.36856 -16.253 -1.4255 -2.61208e-007 -5.85898e-007 -1.56392e-006 96.3562 -47.8915 110.97 167.114 67.9352 -166.071 2.32483 -16.2467 1.44807 2.99075e-007 7.92187e-007 8.40292e-008 
0.996773 17.8509 0.356637 -8.03118e-015 8.22675 -180 -0.577413 14.6009 -0.0336171 -1.20782 29.2014 0.0958631 -1.20782 29.2014 0.0958634 -4.99009e-006 -0.146022 9.87623e-007 20.1177 -27.8658 12.6384 -10.8772 -11.2613 -16.5062 -24.0923 22.8136 -74.0735 11.4855 -13.1549 0.11773 41.28 8.51834 -10.5584 1.18796e-007 -1.62938e-007 -6.99007e-008 1.18796e-007 -1.62938e-007 -6.99007e-008 3.56387e-007 -4.88813e-007 -2.09702e-007 1.18796e-007 -1.62938e-007 -6.99007e-008 -0.0146095 -8.87401e-005 4.99099e-006 3.56386e-007 -4.88786e-007 -2.09765e-007 1.18796e-007 -1.62938e-007 -6.99007e-008 -0.01877 -0.00118345 6.59355e-005 3.34483e-006 1.01826e-006 1.23877e-006 1.18796e-007 -1.62938e-007 -6.99007e-008 -0.0122825 -0.00325058 0.000672007 3.56377e-007 -4.88792e-007 -2.09765e-007 1.18796e-007 -1.62938e-007 -6.99007e-008 1.18796e-007 -1.62938e-007 -6.99007e-008 3.56387e-007 -4.88813e-007 -2.09702e-007 10.0797 -11.3072 15.2176 24.1976 23.3061 75.1594 -11.3181 -13.0943 -0.11803 -35.7054 7.95142 9.66478 6.36111e-015 -7.95139e-015 3.18055e-015 5.28474e-006 1.88332e-006 5.567e-008 -2.89327e-006 1.33768e-006 -1.48788e-006 6.36111e-015 -7.95139e-015 3.18055e-015 0.0150004 -8.7028e-005 -2.62179e-006 -2.89179e-006 1.33748e-006 -1.48806e-006 6.36111e-015 -7.95139e-015 3.18055e-015 0.019018 -0.00118696 -5.08361e-005 -2.89141e-006 1.33731e-006 -1.48808e-006 6.36111e-015 -7.95139e-015 3.18055e-015 0.0122919 -0.00324932 -0.000674556 1.76556e-031 1.59028e-015 -6.36111e-015 6.36111e-015 -7.95139e-015 3.18055e-015 5.28474e-006 1.88332e-006 5.567e-008 -2.89327e-006 1.33768e-006 -1.48788e-006 -94.8393 -47.9713 -109.341 -166.873 68.3702 165.876 -2.22263 -16.4201 -1.31822 1.37001e-006 -1.57176e-007 3.1829e-006 94.864 -48.035 109.318 166.906 68.3744 -165.909 2.17593 -16.4133 1.34229 4.77083e-015 0 6.36111e-015 
0.996775 18.2824 0.291505 -8.09697e-015 8.75232 -180 -0.580527 14.9396 -0.0264074 -1.21957 29.8788 0.116771 -1.21957 29.8788 0.11677 -1.61862e-006 -0.144691 -8.99232e-007 19.9213 -27.6715 12.4901 -10.8999 -11.97 -16.6569 -24.0923 22.8136 -74.0734 11.4855 -13.155 0.117727 41.5978 8.39476 -10.7911 2.7484e-006 1.83275e-006 1.59248e-006 -3.56256e-007 4.8883e-007 2.09873e-007 7.91071e-007 1.75126e-006 3.03132e-006 2.7484e-006 1.83275e-006 1.59248e-006 -0.0145893 -9.03367e-005 -3.45635e-006 -1.06876e-006 1.46641e-006 6.29807e-007 2.7484e-006 1.83275e-006 1.59248e-006 -0.0187665 -0.00117272 5.60856e-005 -1.06875e-006 1.46639e-006 6.2987e-007 2.7484e-006 1.83275e-006 1.59248e-006 -0.0122966 -0.00325605 0.000679638 -1.06874e-006 1.46643e-006 6.29807e-007 2.7484e-006 1.83275e-006 1.59248e-006 -3.56256e-007 4.8883e-007 2.09873e-007 7.91071e-007 1.75126e-006 3.03132e-006 10.0421 -12.0195 15.2793 24.1976 23.3061 75.1594 -11.3181 -13.0943 -0.118034 -36.0499 7.79362 9.83837 -9.55914e-007 -1.28887e-006 5.72724e-007 -3.0557e-006 1.26739e-006 6.0536e-008 6.36111e-015 1.59028e-015 -3.18055e-015 -9.55914e-007 -1.28887e-006 5.72724e-007 0.014968 -8.86223e-005 8.08559e-007 7.94503e-031 -4.77083e-015 9.54166e-015 -9.55914e-007 -1.28887e-006 5.72724e-007 0.0190128 -0.00118835 -6.04739e-005 -6.36111e-015 7.95139e-015 3.18055e-015 -9.55914e-007 -1.28887e-006 5.72724e-007 0.012276 -0.00325045 -0.000684653 3.18055e-015 -7.95139e-015 6.36111e-015 -9.55914e-007 -1.28887e-006 5.72724e-007 -3.0557e-006 1.26739e-006 6.0536e-008 6.36111e-015 1.59028e-015 -3.18055e-015 -93.3393 -48.083 -107.685 -166.654 68.8084 165.704 -2.07614 -16.5873 -1.21058 7.71518e-007 1.42699e-006 3.01522e-006 93.3634 -48.1503 107.657 166.689 68.813 -165.74 2.02649 -16.5799 1.23614 -4.93295e-007 1.0912e-006 1.5363e-007 
0.996777 18.7144 0.226752 -8.16295e-015 9.27782 -180 -0.583712 15.2783 -0.0191464 -1.23174 30.556 0.138021 -1.23174 30.556 0.138021 2.55642e-006 -0.143857 -4.38551e-006 19.7257 -27.4767 12.3429 -10.9246 -12.6786 -16.8082 -24.0923 22.8136 -74.0734 11.4855 -13.155 0.11775 41.9149 8.26989 -11.0229 -3.56125e-007 4.88847e-007 2.10042e-007 -3.33768e-006 -1.01749e-006 -1.24672e-006 2.98156e-006 1.50633e-006 1.45676e-006 -3.56125e-007 4.88847e-007 2.10042e-007 -0.0146179 -9.0533e-005 9.84553e-007 2.98012e-006 1.50614e-006 1.45695e-006 -3.56125e-007 4.88847e-007 2.10042e-007 -0.0187494 -0.0011796 5.71805e-005 -3.18055e-015 0 3.18055e-015 -3.56125e-007 4.88847e-007 2.10042e-007 -0.0122992 -0.00325606 0.000676557 2.9804e-006 1.50584e-006 1.45691e-006 -3.56125e-007 4.88847e-007 2.10042e-007 -3.33768e-006 -1.01749e-006 -1.24672e-006 2.98156e-006 1.50633e-006 1.45676e-006 10.0052 -12.7316 15.3407 24.1976 23.3061 75.1594 -11.3181 -13.0943 -0.118065 -36.3937 7.63482 10.0109 -4.77633e-007 -6.44661e-007 2.86281e-007 -1.27222e-014 -3.18055e-015 -3.18055e-015 -4.77633e-007 -6.44661e-007 2.86281e-007 -4.77633e-007 -6.44661e-007 2.86281e-007 0.0149829 -9.45958e-005 -1.76983e-005 -4.77625e-007 -6.44623e-007 2.86365e-007 -4.77633e-007 -6.44661e-007 2.86281e-007 0.018994 -0.00118624 -5.59499e-005 -4.7762e-007 -6.44614e-007 2.86393e-007 -4.77633e-007 -6.44661e-007 2.86281e-007 0.0122781 -0.00325114 -0.000681702 -4.77615e-007 -6.44634e-007 2.86363e-007 -4.77633e-007 -6.44661e-007 2.86281e-007 -1.27222e-014 -3.18055e-015 -3.18055e-015 -4.77633e-007 -6.44661e-007 2.86281e-007 -91.8331 -48.1664 -106.023 -166.426 69.2461 165.522 -1.92916 -16.7544 -1.10258 1.58446e-006 5.98071e-007 -1.39147e-007 91.8563 -48.2373 105.992 166.465 69.251 -165.561 1.87657 -16.7466 1.12962 -1.08749e-006 3.87373e-007 -4.71155e-006 
